<svg xmlns="http://www.w3.org/2000/svg" width="1024" height="1536" viewBox="0 0 1024 1536"><rect width="100%" height="100%" fill="#f4efe5"/><g><rect x="0" y="0" width="512" height="768" fill="#daf3e6"/><g><circle cx="22" cy="18" r="1.5" fill="#232323" opacity=".09"/><circle cx="93" cy="65" r="1.5" fill="#232323" opacity=".09"/><circle cx="164" cy="112" r="1.5" fill="#232323" opacity=".09"/><circle cx="235" cy="159" r="1.5" fill="#232323" opacity=".09"/><circle cx="306" cy="206" r="1.5" fill="#232323" opacity=".09"/><circle cx="377" cy="253" r="1.5" fill="#232323" opacity=".09"/><circle cx="448" cy="300" r="1.5" fill="#232323" opacity=".09"/><circle cx="51" cy="347" r="1.5" fill="#232323" opacity=".09"/><circle cx="122" cy="394" r="1.5" fill="#232323" opacity=".09"/><circle cx="193" cy="441" r="1.5" fill="#232323" opacity=".09"/><circle cx="264" cy="488" r="1.5" fill="#232323" opacity=".09"/><circle cx="335" cy="535" r="1.5" fill="#232323" opacity=".09"/><circle cx="406" cy="582" r="1.5" fill="#232323" opacity=".09"/><circle cx="477" cy="629" r="1.5" fill="#232323" opacity=".09"/><circle cx="80" cy="676" r="1.5" fill="#232323" opacity=".09"/><circle cx="151" cy="723" r="1.5" fill="#232323" opacity=".09"/><circle cx="222" cy="38" r="1.5" fill="#232323" opacity=".09"/><circle cx="293" cy="85" r="1.5" fill="#232323" opacity=".09"/><circle cx="364" cy="132" r="1.5" fill="#232323" opacity=".09"/><circle cx="435" cy="179" r="1.5" fill="#232323" opacity=".09"/><circle cx="38" cy="226" r="1.5" fill="#232323" opacity=".09"/><circle cx="109" cy="273" r="1.5" fill="#232323" opacity=".09"/><circle cx="180" cy="320" r="1.5" fill="#232323" opacity=".09"/><circle cx="251" cy="367" r="1.5" fill="#232323" opacity=".09"/><circle cx="322" cy="414" r="1.5" fill="#232323" opacity=".09"/><circle cx="393" cy="461" r="1.5" fill="#232323" opacity=".09"/><ellipse cx="256" cy="668.16" rx="111.87199999999999" ry="17.5104" fill="#232323" opacity=".12"/>
 <path d="M185.472 546.56q70.52799999999999 -34.048 141.05599999999998 0v85.11999999999999q-70.52799999999999 38.912-141.05599999999998 0z" fill="#315cff" stroke="#232323" stroke-width="7" stroke-linejoin="round"/>
 <path d="M220.736 658.432v36.9664M291.264 658.432v36.9664" stroke="#232323" stroke-width="9" stroke-linecap="round"/>
 <circle cx="256" cy="268.79999999999995" r="97.28" fill="#d8ff67" stroke="#232323" stroke-width="7"/>
 
 <circle cx="222.9248" cy="266.85439999999994" r="7.295999999999999" fill="#232323"/><circle cx="289.0752" cy="266.85439999999994" r="7.295999999999999" fill="#232323"/>
 <path d="M243.3536 296.03839999999997q12.6464 10.700800000000001 25.2928 0" fill="none" stroke="#232323" stroke-width="5" stroke-linecap="round"/>
 <circle cx="200.5504" cy="292.14719999999994" r="10.700800000000001" fill="#ff8d91" opacity=".65"/><circle cx="311.4496" cy="292.14719999999994" r="10.700800000000001" fill="#ff8d91" opacity=".65"/>
 <path d="M72.76 496.15999999999997q45-55 90 0" fill="none" stroke="#232323" stroke-width="9" stroke-linecap="round"/><circle cx="72.76" cy="494.15999999999997" r="10" fill="#fff" stroke="#232323" stroke-width="5"/><circle cx="162.76" cy="494.15999999999997" r="10" fill="#fff" stroke="#232323" stroke-width="5"/></g></g><g><rect x="512" y="0" width="512" height="768" fill="#fff0c9"/><g><circle cx="534" cy="18" r="1.5" fill="#232323" opacity=".09"/><circle cx="605" cy="65" r="1.5" fill="#232323" opacity=".09"/><circle cx="676" cy="112" r="1.5" fill="#232323" opacity=".09"/><circle cx="747" cy="159" r="1.5" fill="#232323" opacity=".09"/><circle cx="818" cy="206" r="1.5" fill="#232323" opacity=".09"/><circle cx="889" cy="253" r="1.5" fill="#232323" opacity=".09"/><circle cx="960" cy="300" r="1.5" fill="#232323" opacity=".09"/><circle cx="563" cy="347" r="1.5" fill="#232323" opacity=".09"/><circle cx="634" cy="394" r="1.5" fill="#232323" opacity=".09"/><circle cx="705" cy="441" r="1.5" fill="#232323" opacity=".09"/><circle cx="776" cy="488" r="1.5" fill="#232323" opacity=".09"/><circle cx="847" cy="535" r="1.5" fill="#232323" opacity=".09"/><circle cx="918" cy="582" r="1.5" fill="#232323" opacity=".09"/><circle cx="989" cy="629" r="1.5" fill="#232323" opacity=".09"/><circle cx="592" cy="676" r="1.5" fill="#232323" opacity=".09"/><circle cx="663" cy="723" r="1.5" fill="#232323" opacity=".09"/><circle cx="734" cy="38" r="1.5" fill="#232323" opacity=".09"/><circle cx="805" cy="85" r="1.5" fill="#232323" opacity=".09"/><circle cx="876" cy="132" r="1.5" fill="#232323" opacity=".09"/><circle cx="947" cy="179" r="1.5" fill="#232323" opacity=".09"/><circle cx="550" cy="226" r="1.5" fill="#232323" opacity=".09"/><circle cx="621" cy="273" r="1.5" fill="#232323" opacity=".09"/><circle cx="692" cy="320" r="1.5" fill="#232323" opacity=".09"/><circle cx="763" cy="367" r="1.5" fill="#232323" opacity=".09"/><circle cx="834" cy="414" r="1.5" fill="#232323" opacity=".09"/><circle cx="905" cy="461" r="1.5" fill="#232323" opacity=".09"/><ellipse cx="768" cy="668.16" rx="111.87199999999999" ry="17.5104" fill="#232323" opacity=".12"/>
 <path d="M697.472 546.56q70.52799999999999 -34.048 141.05599999999998 0v85.11999999999999q-70.52799999999999 38.912-141.05599999999998 0z" fill="#ff6547" stroke="#232323" stroke-width="7" stroke-linejoin="round"/>
 <path d="M732.736 658.432v36.9664M803.264 658.432v36.9664" stroke="#232323" stroke-width="9" stroke-linecap="round"/>
 <circle cx="768" cy="268.79999999999995" r="97.28" fill="#ffd66b" stroke="#232323" stroke-width="7"/>
 
 <circle cx="734.9248" cy="266.85439999999994" r="7.295999999999999" fill="#232323"/><circle cx="801.0752" cy="266.85439999999994" r="7.295999999999999" fill="#232323"/>
 <path d="M755.3536 296.03839999999997q12.6464 10.700800000000001 25.2928 0" fill="none" stroke="#232323" stroke-width="5" stroke-linecap="round"/>
 <circle cx="712.5504" cy="292.14719999999994" r="10.700800000000001" fill="#ff8d91" opacity=".65"/><circle cx="823.4496" cy="292.14719999999994" r="10.700800000000001" fill="#ff8d91" opacity=".65"/>
 <rect x="577.76" y="446.15999999999997" width="104" height="68" rx="12" fill="#fff" stroke="#232323" stroke-width="7"/><circle cx="629.76" cy="480.15999999999997" r="22" fill="#bfefff" stroke="#232323" stroke-width="7"/><path d="M599.76 446.15999999999997l10-16h38l10 16" fill="#fff" stroke="#232323" stroke-width="7"/></g></g><g><rect x="0" y="768" width="512" height="768" fill="#f7e2d8"/><g><circle cx="22" cy="786" r="1.5" fill="#232323" opacity=".09"/><circle cx="93" cy="833" r="1.5" fill="#232323" opacity=".09"/><circle cx="164" cy="880" r="1.5" fill="#232323" opacity=".09"/><circle cx="235" cy="927" r="1.5" fill="#232323" opacity=".09"/><circle cx="306" cy="974" r="1.5" fill="#232323" opacity=".09"/><circle cx="377" cy="1021" r="1.5" fill="#232323" opacity=".09"/><circle cx="448" cy="1068" r="1.5" fill="#232323" opacity=".09"/><circle cx="51" cy="1115" r="1.5" fill="#232323" opacity=".09"/><circle cx="122" cy="1162" r="1.5" fill="#232323" opacity=".09"/><circle cx="193" cy="1209" r="1.5" fill="#232323" opacity=".09"/><circle cx="264" cy="1256" r="1.5" fill="#232323" opacity=".09"/><circle cx="335" cy="1303" r="1.5" fill="#232323" opacity=".09"/><circle cx="406" cy="1350" r="1.5" fill="#232323" opacity=".09"/><circle cx="477" cy="1397" r="1.5" fill="#232323" opacity=".09"/><circle cx="80" cy="1444" r="1.5" fill="#232323" opacity=".09"/><circle cx="151" cy="1491" r="1.5" fill="#232323" opacity=".09"/><circle cx="222" cy="806" r="1.5" fill="#232323" opacity=".09"/><circle cx="293" cy="853" r="1.5" fill="#232323" opacity=".09"/><circle cx="364" cy="900" r="1.5" fill="#232323" opacity=".09"/><circle cx="435" cy="947" r="1.5" fill="#232323" opacity=".09"/><circle cx="38" cy="994" r="1.5" fill="#232323" opacity=".09"/><circle cx="109" cy="1041" r="1.5" fill="#232323" opacity=".09"/><circle cx="180" cy="1088" r="1.5" fill="#232323" opacity=".09"/><circle cx="251" cy="1135" r="1.5" fill="#232323" opacity=".09"/><circle cx="322" cy="1182" r="1.5" fill="#232323" opacity=".09"/><circle cx="393" cy="1229" r="1.5" fill="#232323" opacity=".09"/><ellipse cx="256" cy="1436.1599999999999" rx="111.87199999999999" ry="17.5104" fill="#232323" opacity=".12"/>
 <path d="M185.472 1314.56q70.52799999999999 -34.048 141.05599999999998 0v85.11999999999999q-70.52799999999999 38.912-141.05599999999998 0z" fill="#36a878" stroke="#232323" stroke-width="7" stroke-linejoin="round"/>
 <path d="M220.736 1426.4319999999998v36.9664M291.264 1426.4319999999998v36.9664" stroke="#232323" stroke-width="9" stroke-linecap="round"/>
 <circle cx="256" cy="1036.8" r="97.28" fill="#ffd6df" stroke="#232323" stroke-width="7"/>
 
 <circle cx="222.9248" cy="1034.8544" r="7.295999999999999" fill="#232323"/><circle cx="289.0752" cy="1034.8544" r="7.295999999999999" fill="#232323"/>
 <path d="M243.3536 1064.0384q12.6464 10.700800000000001 25.2928 0" fill="none" stroke="#232323" stroke-width="5" stroke-linecap="round"/>
 <circle cx="200.5504" cy="1060.1471999999999" r="10.700800000000001" fill="#ff8d91" opacity=".65"/><circle cx="311.4496" cy="1060.1471999999999" r="10.700800000000001" fill="#ff8d91" opacity=".65"/>
 <path d="M79.76 1214.1599999999999h72v65h-72zM151.76 1229.1599999999999q35 0 20 35-8 12-20 8" fill="#fff" stroke="#232323" stroke-width="7" stroke-linejoin="round"/></g></g><g><rect x="512" y="768" width="512" height="768" fill="#e4e2ff"/><g><circle cx="534" cy="786" r="1.5" fill="#232323" opacity=".09"/><circle cx="605" cy="833" r="1.5" fill="#232323" opacity=".09"/><circle cx="676" cy="880" r="1.5" fill="#232323" opacity=".09"/><circle cx="747" cy="927" r="1.5" fill="#232323" opacity=".09"/><circle cx="818" cy="974" r="1.5" fill="#232323" opacity=".09"/><circle cx="889" cy="1021" r="1.5" fill="#232323" opacity=".09"/><circle cx="960" cy="1068" r="1.5" fill="#232323" opacity=".09"/><circle cx="563" cy="1115" r="1.5" fill="#232323" opacity=".09"/><circle cx="634" cy="1162" r="1.5" fill="#232323" opacity=".09"/><circle cx="705" cy="1209" r="1.5" fill="#232323" opacity=".09"/><circle cx="776" cy="1256" r="1.5" fill="#232323" opacity=".09"/><circle cx="847" cy="1303" r="1.5" fill="#232323" opacity=".09"/><circle cx="918" cy="1350" r="1.5" fill="#232323" opacity=".09"/><circle cx="989" cy="1397" r="1.5" fill="#232323" opacity=".09"/><circle cx="592" cy="1444" r="1.5" fill="#232323" opacity=".09"/><circle cx="663" cy="1491" r="1.5" fill="#232323" opacity=".09"/><circle cx="734" cy="806" r="1.5" fill="#232323" opacity=".09"/><circle cx="805" cy="853" r="1.5" fill="#232323" opacity=".09"/><circle cx="876" cy="900" r="1.5" fill="#232323" opacity=".09"/><circle cx="947" cy="947" r="1.5" fill="#232323" opacity=".09"/><circle cx="550" cy="994" r="1.5" fill="#232323" opacity=".09"/><circle cx="621" cy="1041" r="1.5" fill="#232323" opacity=".09"/><circle cx="692" cy="1088" r="1.5" fill="#232323" opacity=".09"/><circle cx="763" cy="1135" r="1.5" fill="#232323" opacity=".09"/><circle cx="834" cy="1182" r="1.5" fill="#232323" opacity=".09"/><circle cx="905" cy="1229" r="1.5" fill="#232323" opacity=".09"/><ellipse cx="768" cy="1436.1599999999999" rx="111.87199999999999" ry="17.5104" fill="#232323" opacity=".12"/>
 <path d="M697.472 1314.56q70.52799999999999 -34.048 141.05599999999998 0v85.11999999999999q-70.52799999999999 38.912-141.05599999999998 0z" fill="#7657d5" stroke="#232323" stroke-width="7" stroke-linejoin="round"/>
 <path d="M732.736 1426.4319999999998v36.9664M803.264 1426.4319999999998v36.9664" stroke="#232323" stroke-width="9" stroke-linecap="round"/>
 <circle cx="768" cy="1036.8" r="97.28" fill="#bfefff" stroke="#232323" stroke-width="7"/>
 
 <circle cx="734.9248" cy="1034.8544" r="7.295999999999999" fill="#232323"/><circle cx="801.0752" cy="1034.8544" r="7.295999999999999" fill="#232323"/>
 <path d="M755.3536 1064.0384q12.6464 10.700800000000001 25.2928 0" fill="none" stroke="#232323" stroke-width="5" stroke-linecap="round"/>
 <circle cx="712.5504" cy="1060.1471999999999" r="10.700800000000001" fill="#ff8d91" opacity=".65"/><circle cx="823.4496" cy="1060.1471999999999" r="10.700800000000001" fill="#ff8d91" opacity=".65"/>
 <path d="M581.76 1269.1599999999999l76-76 28 28-76 76-35 8z" fill="#ffd563" stroke="#232323" stroke-width="7" stroke-linejoin="round"/></g></g></svg>