<svg xmlns="http://www.w3.org/2000/svg" width="1536" height="1024" viewBox="0 0 1536 1024"><rect width="100%" height="100%" fill="#f4efe5"/><g><rect x="0" y="0" width="768" height="1024" fill="#dff2d2"/><g><circle cx="22" cy="18" r="1.5" fill="#232323" opacity=".09"/><circle cx="93" cy="65" r="1.5" fill="#232323" opacity=".09"/><circle cx="164" cy="112" r="1.5" fill="#232323" opacity=".09"/><circle cx="235" cy="159" r="1.5" fill="#232323" opacity=".09"/><circle cx="306" cy="206" r="1.5" fill="#232323" opacity=".09"/><circle cx="377" cy="253" r="1.5" fill="#232323" opacity=".09"/><circle cx="448" cy="300" r="1.5" fill="#232323" opacity=".09"/><circle cx="519" cy="347" r="1.5" fill="#232323" opacity=".09"/><circle cx="590" cy="394" r="1.5" fill="#232323" opacity=".09"/><circle cx="661" cy="441" r="1.5" fill="#232323" opacity=".09"/><circle cx="732" cy="488" r="1.5" fill="#232323" opacity=".09"/><circle cx="79" cy="535" r="1.5" fill="#232323" opacity=".09"/><circle cx="150" cy="582" r="1.5" fill="#232323" opacity=".09"/><circle cx="221" cy="629" r="1.5" fill="#232323" opacity=".09"/><circle cx="292" cy="676" r="1.5" fill="#232323" opacity=".09"/><circle cx="363" cy="723" r="1.5" fill="#232323" opacity=".09"/><circle cx="434" cy="770" r="1.5" fill="#232323" opacity=".09"/><circle cx="505" cy="817" r="1.5" fill="#232323" opacity=".09"/><circle cx="576" cy="864" r="1.5" fill="#232323" opacity=".09"/><circle cx="647" cy="911" r="1.5" fill="#232323" opacity=".09"/><circle cx="718" cy="958" r="1.5" fill="#232323" opacity=".09"/><circle cx="65" cy="1005" r="1.5" fill="#232323" opacity=".09"/><circle cx="136" cy="64" r="1.5" fill="#232323" opacity=".09"/><circle cx="207" cy="111" r="1.5" fill="#232323" opacity=".09"/><circle cx="278" cy="158" r="1.5" fill="#232323" opacity=".09"/><circle cx="349" cy="205" r="1.5" fill="#232323" opacity=".09"/><ellipse cx="384" cy="890.88" rx="167.808" ry="26.265600000000003" fill="#232323" opacity=".12"/>
 <path d="M278.20799999999997 708.48q105.792 -51.07200000000002 211.584 0v127.68000000000002q-105.792 58.36800000000001-211.584 0z" fill="#315cff" stroke="#232323" stroke-width="7" stroke-linejoin="round"/>
 <path d="M331.104 876.288v55.449600000000004M436.896 876.288v55.449600000000004" stroke="#232323" stroke-width="9" stroke-linecap="round"/>
 <circle cx="384" cy="358.4" r="145.92000000000002" fill="#d8ff67" stroke="#232323" stroke-width="7"/>
 
 <circle cx="334.3872" cy="355.48159999999996" r="10.944" fill="#232323"/><circle cx="433.6128" cy="355.48159999999996" r="10.944" fill="#232323"/>
 <path d="M365.0304 399.25759999999997q18.969600000000003 16.0512 37.93920000000001 0" fill="none" stroke="#232323" stroke-width="5" stroke-linecap="round"/>
 <circle cx="300.8256" cy="393.4208" r="16.0512" fill="#ff8d91" opacity=".65"/><circle cx="467.1744" cy="393.4208" r="16.0512" fill="#ff8d91" opacity=".65"/>
 <path d="M171.64000000000001 676.88q-10-80 70-90 7 77-70 90z" fill="#72cf67" stroke="#232323" stroke-width="7"/><path d="M171.64000000000001 676.88q20-43 55-65" fill="none" stroke="#232323" stroke-width="6"/></g></g><g><rect x="768" y="0" width="768" height="1024" fill="#ffe3a8"/><g><circle cx="790" cy="18" r="1.5" fill="#232323" opacity=".09"/><circle cx="861" cy="65" r="1.5" fill="#232323" opacity=".09"/><circle cx="932" cy="112" r="1.5" fill="#232323" opacity=".09"/><circle cx="1003" cy="159" r="1.5" fill="#232323" opacity=".09"/><circle cx="1074" cy="206" r="1.5" fill="#232323" opacity=".09"/><circle cx="1145" cy="253" r="1.5" fill="#232323" opacity=".09"/><circle cx="1216" cy="300" r="1.5" fill="#232323" opacity=".09"/><circle cx="1287" cy="347" r="1.5" fill="#232323" opacity=".09"/><circle cx="1358" cy="394" r="1.5" fill="#232323" opacity=".09"/><circle cx="1429" cy="441" r="1.5" fill="#232323" opacity=".09"/><circle cx="1500" cy="488" r="1.5" fill="#232323" opacity=".09"/><circle cx="847" cy="535" r="1.5" fill="#232323" opacity=".09"/><circle cx="918" cy="582" r="1.5" fill="#232323" opacity=".09"/><circle cx="989" cy="629" r="1.5" fill="#232323" opacity=".09"/><circle cx="1060" cy="676" r="1.5" fill="#232323" opacity=".09"/><circle cx="1131" cy="723" r="1.5" fill="#232323" opacity=".09"/><circle cx="1202" cy="770" r="1.5" fill="#232323" opacity=".09"/><circle cx="1273" cy="817" r="1.5" fill="#232323" opacity=".09"/><circle cx="1344" cy="864" r="1.5" fill="#232323" opacity=".09"/><circle cx="1415" cy="911" r="1.5" fill="#232323" opacity=".09"/><circle cx="1486" cy="958" r="1.5" fill="#232323" opacity=".09"/><circle cx="833" cy="1005" r="1.5" fill="#232323" opacity=".09"/><circle cx="904" cy="64" r="1.5" fill="#232323" opacity=".09"/><circle cx="975" cy="111" r="1.5" fill="#232323" opacity=".09"/><circle cx="1046" cy="158" r="1.5" fill="#232323" opacity=".09"/><circle cx="1117" cy="205" r="1.5" fill="#232323" opacity=".09"/><ellipse cx="1152" cy="890.88" rx="167.808" ry="26.265600000000003" fill="#232323" opacity=".12"/>
 <path d="M1046.208 708.48q105.792 -51.07200000000002 211.584 0v127.68000000000002q-105.792 58.36800000000001-211.584 0z" fill="#ff6547" stroke="#232323" stroke-width="7" stroke-linejoin="round"/>
 <path d="M1099.104 876.288v55.449600000000004M1204.896 876.288v55.449600000000004" stroke="#232323" stroke-width="9" stroke-linecap="round"/>
 <circle cx="1152" cy="358.4" r="145.92000000000002" fill="#ffd66b" stroke="#232323" stroke-width="7"/>
 
 <circle cx="1102.3872" cy="355.48159999999996" r="10.944" fill="#232323"/><circle cx="1201.6128" cy="355.48159999999996" r="10.944" fill="#232323"/>
 <path d="M1133.0304 399.25759999999997q18.969600000000003 16.0512 37.93920000000001 0" fill="none" stroke="#232323" stroke-width="5" stroke-linecap="round"/>
 <circle cx="1068.8256" cy="393.4208" r="16.0512" fill="#ff8d91" opacity=".65"/><circle cx="1235.1744" cy="393.4208" r="16.0512" fill="#ff8d91" opacity=".65"/>
 <circle cx="944.64" cy="634.88" r="48" fill="#ffd564" stroke="#232323" stroke-width="7"/><path d="M899.64 624.88q45 25 90 0M934.64 589.88q25 45 0 90" fill="none" stroke="#232323" stroke-width="6"/></g></g></svg>